<svg id="Layer_1" data-name="Layer 1" xmlns="http://www.w3.org/2000/svg" viewBox="0 0 480.98 158.23"><defs><style>.cls-1{fill:#f27b28;}.cls-2{fill:#8a8a8a;}</style></defs><title>Artboard 1</title><path class="cls-1" d="M24.54,60.83H0V4.07H22.58c11.41,0,18,4.77,18,13.2a13.71,13.71,0,0,1-7.41,12.36c6.56,2.72,9.88,8.17,9.88,15C43,53.41,37.23,60.83,24.54,60.83Zm-2-51.12H6V27.94H23.17c7.33,0,11.33-3.92,11.33-9.8S30.59,9.71,22.58,9.71Zm2.38,23.77h-19V55.2H24.5c7.92,0,12.18-4,12.18-10.73,0-6.31-3.62-11-11.72-11Z"/><path class="cls-1" d="M78.88,22.66a11.16,11.16,0,0,0-5.12-1.28c-6.13,0-12.18,5.45-12.18,15.93V60.83H56.13V17h5.45v7.67c3.07-4.77,7.5-8.52,13.12-8.52a11.19,11.19,0,0,1,6.14,1.7Z"/><path class="cls-1" d="M90.39,6.81V0h5.46V6.81Zm0,54V17h5.46V60.83Z"/><path class="cls-1" d="M145.77,69.69c-4.09,4.77-10.4,6.81-17.81,6.81a29.63,29.63,0,0,1-18-5.45l3.33-4.6a24.71,24.71,0,0,0,14.91,4.77c9.45,0,16.69-4.69,16.69-16V49.86c-3.57,6.21-10.3,9-16.86,9-11.68,0-19.85-9-19.85-21.3,0-12.7,8.6-21.64,20.27-21.64,6.56,0,12.87,2.81,16.44,9v-8h5.5v37.4C150.39,60.91,149.09,65.85,145.77,69.69ZM129.24,21.3c-10.4,0-15.25,7.41-15.25,16.1s4.94,16.27,15.25,16.27c10.14,0,15.76-7.33,15.76-16.27S139.55,21.3,129.24,21.3Z"/><path class="cls-1" d="M165.29,60.83V0h5.45V25c3.75-5.79,8.77-9,15.68-9C195.7,16,202,21.88,202,32.87v28h-5.46V34.07c0-5.8-1.7-12.87-10.82-12.87-8.6,0-15,6.39-15,15.51V60.82Z"/><path class="cls-1" d="M239.88,59.21a13.77,13.77,0,0,1-8.61,2.64c-4.94,0-8.86-1.71-11.07-5.62-1.11-2-1.62-4.18-1.62-8.18V22h-7.75V17h7.75V4.07H224V17h14.83v5H224V48.07c0,5.7,2.39,8.69,7.5,8.69A9.26,9.26,0,0,0,237.32,55Z"/><path class="cls-1" d="M264.9,61.85c-8.35,0-14.65-3.41-18.49-8.86l4.35-3.5a16.86,16.86,0,0,0,14.39,7.25c6.39,0,11.34-2.73,11.34-8.35,0-5-3.92-5.88-13-7.76-8-1.61-14.82-4-14.82-12.26,0-8.78,7.75-12.44,15.67-12.44a23.13,23.13,0,0,1,16.7,6.9l-3.92,4a16.08,16.08,0,0,0-12.9-5.76c-5,0-10.31,1.79-10.31,6.82s5.28,6.39,11.33,7.58C273.42,37.09,282,38.79,282,48.25,282,56.23,275.72,61.85,264.9,61.85Z"/><path class="cls-1" d="M299.49,17v8c4.35-6.65,10.23-9,16.36-9,12.61,0,20.28,10,20.28,22.92s-7.76,23-20.28,23c-6.22,0-12-2.47-16.36-9V75.7H294V17Zm15.68,39.62c10.14,0,15.16-7.76,15.16-17.64s-4.94-17.72-15.16-17.72-15.68,7.92-15.68,17.72S305,56.57,315.17,56.57Z"/><path class="cls-1" d="M384.05,61.51c-4.17,0-7.83-2.22-8.35-7.5-4.09,6-10.05,7.84-15.5,7.84-9,0-14.82-5-14.82-13.21,0-10.13,8.86-12.18,14.82-13,7.33-1,15.08-1.11,15.08-7.41,0-5.37-5.79-7.16-10.91-7.16a21.85,21.85,0,0,0-13.63,4.77l-3.06-4.09A26.46,26.46,0,0,1,364.54,16C374.17,16,381,20.22,381,30V51.51c0,3.67,1,5.37,3.91,5.37a6.73,6.73,0,0,0,2.73-.51l.77,4.52A13.67,13.67,0,0,1,384.05,61.51Zm-8.52-26.33c-3.4,4.26-8.26,4.09-14.31,5.11-5.71.94-10.14,2.3-10.14,8.18s4.52,8.35,10.14,8.35c7.07,0,14.31-3.75,14.31-13.2Z"/><path class="cls-1" d="M431.72,53.16a20.67,20.67,0,0,1-17.12,8.69c-12.61,0-20.7-10-20.7-23S402,15.93,414.69,15.93a20.37,20.37,0,0,1,17,8.52l-4.4,3.32a14.57,14.57,0,0,0-12.52-6.64c-9.29,0-15.08,7.66-15.08,17.72s5.79,17.8,14.91,17.8a15,15,0,0,0,12.79-6.81Z"/><path class="cls-1" d="M480.76,40.12H445.32c.42,10.23,6.73,16.36,16.1,16.36a17.09,17.09,0,0,0,13.29-6l3.83,3.83a22,22,0,0,1-17.12,7.5c-13.72,0-21.89-9.8-21.89-22.83,0-12.87,8-23.09,21-23.09,12.53,0,20.45,9.71,20.45,21.64A16.07,16.07,0,0,1,480.76,40.12Zm-5.62-4.68c-.86-9.46-7.25-14.31-14.83-14.31-8.52,0-14.14,6-14.82,14.31Z"/><path class="cls-2" d="M61.81,100.3c-3.49-5.08-8.9-8.24-16.23-8.24-12.32,0-20.39,9-20.39,23s8.2,23.28,20.2,23.28A19.27,19.27,0,0,0,61.78,130l4.83,3.58c-4.66,6.41-12,10.32-21.06,10.32-16.14,0-26.63-12.31-26.63-28.71S29.41,86.48,45.47,86.48c9.4,0,16.23,4,20.89,10.24Z"/><path class="cls-2" d="M93.94,143.91c-12.65,0-20.48-9.73-20.48-22.39s7.83-22.45,20.48-22.45,20.56,9.66,20.56,22.47S106.59,143.91,93.94,143.91Zm0-39.78c-9.41,0-14.82,7.66-14.82,17.39s5.41,17.32,14.82,17.32,14.81-7.74,14.81-17.32S103.39,104.13,93.94,104.13Z"/><path class="cls-2" d="M125.48,142.92V100.07h5.33v7.66c3.49-5.58,8.07-8.66,14.48-8.66s11.15,3.16,13.23,9.16c3.42-5.41,8.5-9.16,15.49-9.16,8.9,0,14.56,5.66,14.56,16.15v27.72h-5.32V116.53c0-6-1.59-12.32-9.83-12.32-7.82,0-13.73,6.16-13.73,14.82v23.89h-5.3V116.53c0-6.08-1.58-12.32-9.9-12.32-7.83,0-13.65,6.08-13.65,14.82v23.89Z"/><path class="cls-2" d="M201.89,142.92V100.07h5.32v7.66c3.5-5.58,8.08-8.66,14.49-8.66s11.15,3.16,13.23,9.16c3.46-5.43,8.46-9.16,15.46-9.16,8.91,0,14.57,5.66,14.57,16.15v27.72h-5.33V116.53c0-6-1.58-12.32-9.82-12.32-7.82,0-13.73,6.16-13.73,14.82v23.89h-5.33V116.53c0-6.08-1.58-12.32-9.91-12.32-7.82,0-13.65,6.08-13.65,14.82v23.89Z"/><path class="cls-2" d="M313.58,100.07v42.87h-5.32v-7.87c-3.66,5.66-8.58,8.82-15.32,8.82-9.07,0-15.23-5.74-15.23-16.48V100.07H283v26.14c0,5.66,1.66,12.56,10.57,12.56,8.41,0,14.65-6.24,14.65-15.15V100.07Z"/><path class="cls-2" d="M327.39,142.92V100.07h5.33v7.82c3.66-5.66,8.57-8.82,15.31-8.82,9.07,0,15.23,5.74,15.23,16.48v27.39h-5.32V116.78c0-5.66-1.67-12.57-10.57-12.57-8.41,0-14.65,6.24-14.65,15.15v23.56Z"/><path class="cls-2" d="M376.59,90.14V83.49h5.32v6.65Zm0,52.78V100.07h5.32v42.87Z"/><path class="cls-2" d="M419,141.33a13.39,13.39,0,0,1-8.4,2.58c-4.83,0-8.66-1.66-10.82-5.49-1.09-1.91-1.59-4.08-1.59-8V105h-7.57v-4.89h7.57V87.48h5.33v12.59H418V105H403.47v25.47c0,5.58,2.33,8.49,7.33,8.49a9.12,9.12,0,0,0,5.66-1.75Z"/><path class="cls-2" d="M444.75,145.07c-3.24,8.49-6.41,13.15-14.23,13.15a12.52,12.52,0,0,1-7.74-2.33l2.5-4.25a9.34,9.34,0,0,0,5.24,1.67c4.41,0,6.74-3.25,8.41-7.41l1.16-2.83-18.39-43h6.16l15.06,35.62,13.32-35.62H462Z"/></svg>